<?xml version="1.0" standalone="no"?>
<!DOCTYPE svg PUBLIC "-//W3C//DTD SVG 20010904//EN"
 "http://www.w3.org/TR/2001/REC-SVG-20010904/DTD/svg10.dtd">
<svg version="1.0" xmlns="http://www.w3.org/2000/svg"
 width="1024.000000pt" height="1024.000000pt" viewBox="0 0 1024.000000 1024.000000"
 preserveAspectRatio="xMidYMid meet">

<g transform="translate(0.000000,1024.000000) scale(0.100000,-0.100000)"
fill="#000000" stroke="none">
<path d="M4905 8869 c-397 -25 -827 -127 -1240 -294 -133 -54 -422 -200 -541
-275 -511 -320 -940 -747 -1259 -1255 -77 -121 -220 -399 -279 -540 -133 -318
-233 -726 -266 -1080 -13 -143 -13 -554 0 -686 39 -385 111 -694 245 -1049 56
-147 203 -451 274 -565 28 -44 62 -100 77 -125 26 -41 133 -195 161 -230 178
-223 425 -477 611 -628 843 -685 1938 -994 2987 -841 747 109 1384 390 1955
863 95 79 384 364 447 441 135 165 215 272 287 382 334 515 523 1053 602 1713
21 177 24 572 5 740 -74 666 -296 1263 -665 1788 -250 357 -643 738 -1018 990
-192 129 -510 297 -723 382 -528 212 -1099 304 -1660 269z m633 -742 c37 -20
69 -67 78 -114 9 -46 -30 -121 -76 -146 -32 -17 -50 -18 -205 -13 -93 4 -271
2 -394 -3 -244 -11 -263 -9 -310 43 -19 20 -26 40 -28 84 -5 69 19 116 72 138
56 23 219 32 535 30 260 -2 299 -4 328 -19z m707 -182 c253 -101 484 -224 713
-377 139 -93 350 -264 373 -302 38 -62 15 -166 -42 -196 -75 -40 -115 -34
-200 31 -371 286 -568 403 -949 568 -198 86 -220 105 -220 190 0 70 44 125
114 141 42 10 61 5 211 -55z m-2047 1 c91 -47 115 -162 49 -224 -21 -20 -225
-115 -371 -173 -52 -21 -92 -19 -134 8 -58 37 -79 129 -43 189 20 34 148 104
316 175 97 41 140 47 183 25z m736 -647 c176 -167 388 -369 473 -448 84 -80
152 -148 151 -152 -2 -4 -235 -244 -518 -533 l-515 -526 -3 305 -2 305 -28 -6
c-161 -39 -368 -163 -512 -307 -140 -140 -247 -323 -304 -522 -27 -92 -56
-258 -56 -319 l0 -34 48 15 c31 11 88 16 172 17 149 1 213 -13 345 -79 222
-110 365 -279 365 -430 l0 -42 -47 -6 c-121 -13 -238 30 -362 134 -150 126
-259 173 -408 174 -50 0 -94 -2 -97 -5 -8 -8 28 -174 54 -250 36 -104 93 -220
150 -306 69 -103 232 -264 341 -337 115 -76 295 -160 430 -200 60 -18 109 -36
109 -41 0 -6 -76 -85 -170 -176 -93 -92 -170 -171 -170 -177 0 -6 151 -159
335 -339 184 -180 334 -328 332 -329 -5 -5 -283 25 -373 40 -235 40 -478 120
-704 234 -228 114 -370 220 -581 430 -253 253 -418 508 -542 836 -56 149 -79
231 -114 410 -25 130 -27 158 -27 400 -1 284 10 368 74 605 123 454 421 895
805 1193 301 233 558 330 832 314 l103 -7 0 277 0 277 48 -45 c26 -25 191
-182 366 -350z m-1529 157 c40 -31 61 -87 51 -139 -5 -29 -30 -58 -134 -154
-148 -139 -175 -159 -224 -168 -44 -8 -119 22 -141 57 -42 64 -33 130 26 190
75 77 234 214 269 232 45 23 108 16 153 -18z m2130 -137 c406 -42 826 -212
1155 -468 475 -368 780 -860 889 -1431 137 -722 -103 -1485 -634 -2016 -261
-260 -550 -435 -807 -489 -43 -9 -126 -15 -219 -15 l-149 0 0 -272 0 -272
-172 171 c-95 93 -229 224 -298 289 -69 65 -190 182 -270 259 -80 78 -180 174
-222 214 l-77 74 332 341 c183 188 416 428 520 535 l187 193 2 -298 c0 -165 1
-307 0 -316 -2 -24 29 -23 109 3 362 118 648 437 753 841 24 94 55 333 44 343
-3 4 -34 -3 -68 -14 -198 -65 -420 -37 -628 81 -93 52 -210 164 -245 233 -21
43 -47 141 -47 181 0 19 108 25 181 10 84 -18 137 -45 219 -110 144 -115 227
-156 360 -177 64 -10 203 1 219 16 2 3 -3 43 -13 90 -79 402 -319 714 -701
911 -79 40 -261 103 -352 121 l-42 8 180 187 179 186 -38 34 c-88 76 -592 560
-592 569 0 9 68 6 245 -12z m2170 -445 c40 -19 64 -48 140 -175 244 -401 396
-817 459 -1254 22 -152 37 -426 25 -469 -27 -98 -127 -141 -225 -97 -64 29
-76 66 -85 256 -23 504 -168 961 -458 1443 -62 102 -74 131 -74 166 0 55 32
102 87 127 51 23 88 24 131 3z m-5148 -321 c38 -17 72 -67 80 -116 4 -27 -8
-60 -65 -178 -151 -311 -230 -574 -272 -907 -11 -84 -27 -167 -36 -183 -50
-98 -214 -91 -267 11 -15 29 -18 50 -13 125 19 329 123 708 281 1030 84 170
113 210 170 230 42 14 70 12 122 -12z m2617 -1098 c125 -33 159 -57 356 -255
102 -103 211 -203 243 -224 95 -62 273 -126 350 -126 42 0 39 -14 -12 -48
-245 -168 -552 -99 -798 178 -124 139 -221 233 -283 274 -65 43 -172 91 -230
103 -17 3 -29 11 -27 17 6 18 127 74 181 84 79 15 156 13 220 -3z m-479 -205
c94 -46 120 -65 204 -149 54 -53 126 -128 162 -166 35 -39 87 -89 114 -112 57
-47 188 -115 255 -132 75 -20 75 -19 48 -40 -73 -58 -242 -97 -345 -81 -157
26 -234 76 -396 258 -55 63 -130 139 -166 169 -84 70 -225 139 -340 166 -50
12 -91 25 -91 28 0 14 108 78 155 92 82 26 86 26 192 23 100 -3 103 -3 208
-56z m-2465 -548 c49 -24 75 -70 100 -174 85 -361 226 -714 395 -988 74 -118
87 -156 74 -203 -22 -80 -86 -123 -167 -114 -40 4 -53 12 -89 52 -57 63 -141
199 -228 370 -109 214 -191 435 -260 700 -48 181 -56 227 -45 266 26 89 134
135 220 91z m5946 -208 c21 -10 45 -34 61 -61 33 -57 29 -94 -33 -284 -68
-212 -134 -366 -221 -522 -62 -109 -94 -138 -162 -144 -77 -8 -149 55 -158
139 -4 38 1 57 45 144 82 165 149 326 203 492 28 86 60 171 70 188 36 60 125
81 195 48z m-5021 -1466 c18 -12 91 -72 162 -132 236 -200 595 -415 868 -521
53 -21 110 -49 126 -62 86 -73 44 -228 -67 -249 -48 -9 -102 8 -289 88 -312
134 -628 331 -888 556 -125 108 -151 145 -145 210 6 59 30 95 83 122 49 26
102 22 150 -12z m4102 -49 c37 -23 73 -84 73 -124 0 -68 -60 -135 -250 -279
-254 -193 -480 -323 -770 -442 -135 -55 -176 -62 -224 -39 -99 47 -116 189
-30 249 10 8 59 30 107 50 278 115 543 272 779 462 159 129 184 144 236 144
28 0 57 -8 79 -21z m-1671 -804 c36 -27 64 -81 64 -123 0 -54 -37 -109 -84
-127 -93 -35 -726 -36 -809 -2 -71 30 -100 135 -57 205 40 65 52 67 477 67
368 0 382 -1 409 -20z"/>
</g>
</svg>
